<svg xmlns="http://www.w3.org/2000/svg" xmlns:xlink="http://www.w3.org/1999/xlink" width="100" zoomAndPan="magnify" viewBox="0 0 75 37.5" height="50" preserveAspectRatio="xMidYMid meet" version="1.0"><defs><g/></defs><g fill="#000000" fill-opacity="1"><g transform="translate(15.984096, 35.616352)"><g><path d="M 11.476562 -34.128906 L 0.425781 -34.128906 C 0.214844 -34.128906 0 -33.914062 0 -33.746094 L 0 -27.855469 L 11.476562 -27.855469 C 12.242188 -27.855469 16.507812 -27.644531 16.507812 -23.890625 C 16.507812 -20.136719 12.328125 -20.050781 11.476562 -20.050781 L 0 -20.050781 L 0 -0.382812 C 0 -0.214844 0.214844 0 0.425781 0 L 5.972656 0 C 6.269531 0 6.398438 -0.214844 6.398438 -0.382812 L 6.398438 -13.738281 L 11.476562 -13.738281 C 12.285156 -13.738281 22.992188 -13.863281 22.992188 -23.890625 C 22.992188 -33.914062 12.839844 -34.128906 11.476562 -34.128906 Z M 11.476562 -34.128906 "/></g></g></g><g fill="#000000" fill-opacity="1"><g transform="translate(42.257886, 35.616352)"><g><path d="M 11.476562 -34.128906 L 0.425781 -34.128906 C 0.214844 -34.128906 0 -33.914062 0 -33.746094 L 0 -27.855469 L 11.476562 -27.855469 C 12.242188 -27.855469 16.507812 -27.644531 16.507812 -23.890625 C 16.507812 -20.136719 12.328125 -20.050781 11.476562 -20.050781 L 0 -20.050781 L 0 -0.382812 C 0 -0.214844 0.214844 0 0.425781 0 L 5.972656 0 C 6.269531 0 6.398438 -0.214844 6.398438 -0.382812 L 6.398438 -13.738281 L 11.476562 -13.738281 C 12.285156 -13.738281 22.992188 -13.863281 22.992188 -23.890625 C 22.992188 -33.914062 12.839844 -34.128906 11.476562 -34.128906 Z M 11.476562 -34.128906 "/></g></g></g></svg>