<svg xmlns="http://www.w3.org/2000/svg" xmlns:xlink="http://www.w3.org/1999/xlink" width="224" zoomAndPan="magnify" viewBox="0 0 168 94.499997" height="126" preserveAspectRatio="xMidYMid meet" version="1.0"><defs><clipPath id="2569eacf50"><path d="M 39 9 L 128.085938 9 L 128.085938 86.398438 L 39 86.398438 Z M 39 9 " clip-rule="nonzero"/></clipPath></defs><g clip-path="url(#2569eacf50)"><path fill="#ffffff" d="M 93.886719 54.710938 C 93.746094 54.574219 93.585938 54.46875 93.40625 54.394531 C 93.226562 54.316406 93.039062 54.28125 92.84375 54.28125 C 92.648438 54.28125 92.460938 54.316406 92.28125 54.394531 C 92.101562 54.46875 91.941406 54.574219 91.804688 54.710938 L 91.371094 55.144531 L 88.03125 51.800781 C 88.34375 51.351562 88.644531 50.894531 88.929688 50.429688 C 89.21875 49.960938 89.488281 49.484375 89.746094 49 C 90 48.519531 90.242188 48.027344 90.46875 47.527344 C 90.695312 47.03125 90.90625 46.523438 91.101562 46.011719 C 91.296875 45.5 91.476562 44.984375 91.640625 44.460938 C 91.800781 43.9375 91.949219 43.410156 92.078125 42.878906 C 92.210938 42.347656 92.324219 41.8125 92.421875 41.273438 C 92.519531 40.734375 92.597656 40.191406 92.664062 39.648438 C 92.726562 39.105469 92.773438 38.558594 92.804688 38.011719 C 92.835938 37.464844 92.847656 36.917969 92.84375 36.371094 C 92.839844 35.824219 92.820312 35.277344 92.78125 34.730469 C 92.746094 34.183594 92.691406 33.640625 92.621094 33.097656 C 92.546875 32.554688 92.460938 32.015625 92.355469 31.476562 C 92.25 30.9375 92.128906 30.40625 91.992188 29.875 C 91.855469 29.34375 91.699219 28.820312 91.53125 28.300781 C 91.359375 27.777344 91.175781 27.265625 90.972656 26.753906 C 90.769531 26.246094 90.554688 25.742188 90.320312 25.25 C 90.085938 24.753906 89.839844 24.265625 89.574219 23.785156 C 89.3125 23.304688 89.035156 22.832031 88.742188 22.371094 C 88.449219 21.90625 88.144531 21.453125 87.824219 21.007812 C 87.503906 20.566406 87.167969 20.132812 86.820312 19.707031 C 86.476562 19.285156 86.113281 18.871094 85.742188 18.472656 C 85.371094 18.070312 84.984375 17.679688 84.589844 17.304688 C 84.191406 16.925781 83.78125 16.5625 83.363281 16.210938 C 82.945312 15.855469 82.515625 15.519531 82.074219 15.191406 C 81.632812 14.867188 81.183594 14.554688 80.722656 14.257812 C 80.265625 13.960938 79.796875 13.675781 79.320312 13.40625 C 78.84375 13.140625 78.355469 12.886719 77.863281 12.648438 C 77.371094 12.40625 76.871094 12.183594 76.367188 11.976562 C 75.859375 11.769531 75.347656 11.578125 74.828125 11.402344 C 74.308594 11.222656 73.785156 11.066406 73.257812 10.921875 C 72.730469 10.777344 72.195312 10.648438 71.660156 10.539062 C 71.125 10.429688 70.585938 10.332031 70.042969 10.257812 C 69.5 10.179688 68.957031 10.117188 68.410156 10.074219 C 67.867188 10.03125 67.320312 10.003906 66.769531 9.992188 C 66.222656 9.984375 65.675781 9.988281 65.128906 10.015625 C 64.582031 10.039062 64.035156 10.078125 63.492188 10.136719 C 62.949219 10.195312 62.40625 10.269531 61.863281 10.359375 C 61.324219 10.449219 60.789062 10.558594 60.253906 10.683594 C 59.722656 10.804688 59.191406 10.945312 58.667969 11.105469 C 58.144531 11.261719 57.625 11.433594 57.109375 11.621094 C 56.597656 11.8125 56.089844 12.015625 55.589844 12.238281 C 55.085938 12.457031 54.59375 12.695312 54.105469 12.945312 C 53.621094 13.195312 53.140625 13.460938 52.671875 13.742188 C 52.199219 14.023438 51.738281 14.316406 51.289062 14.625 C 50.835938 14.9375 50.394531 15.257812 49.960938 15.59375 C 49.53125 15.933594 49.109375 16.28125 48.699219 16.644531 C 48.289062 17.007812 47.890625 17.382812 47.5 17.769531 C 47.113281 18.15625 46.738281 18.554688 46.378906 18.964844 C 46.015625 19.375 45.664062 19.796875 45.328125 20.226562 C 44.992188 20.660156 44.667969 21.101562 44.359375 21.554688 C 44.050781 22.007812 43.757812 22.46875 43.476562 22.9375 C 43.195312 23.40625 42.929688 23.886719 42.679688 24.371094 C 42.425781 24.859375 42.191406 25.355469 41.96875 25.855469 C 41.75 26.355469 41.546875 26.863281 41.355469 27.378906 C 41.167969 27.890625 40.992188 28.410156 40.835938 28.933594 C 40.679688 29.460938 40.539062 29.988281 40.414062 30.523438 C 40.289062 31.054688 40.183594 31.59375 40.09375 32.132812 C 40 32.671875 39.925781 33.214844 39.867188 33.757812 C 39.8125 34.304688 39.769531 34.847656 39.746094 35.394531 C 39.722656 35.941406 39.714844 36.492188 39.726562 37.039062 C 39.738281 37.585938 39.761719 38.132812 39.808594 38.679688 C 39.851562 39.222656 39.910156 39.769531 39.988281 40.308594 C 40.066406 40.851562 40.160156 41.390625 40.273438 41.925781 C 40.382812 42.464844 40.511719 42.996094 40.652344 43.523438 C 40.796875 44.054688 40.957031 44.578125 41.132812 45.09375 C 41.308594 45.613281 41.503906 46.125 41.710938 46.632812 C 41.917969 47.140625 42.140625 47.636719 42.378906 48.132812 C 42.617188 48.625 42.871094 49.109375 43.140625 49.585938 C 43.410156 50.0625 43.691406 50.53125 43.992188 50.992188 C 44.289062 51.449219 44.601562 51.902344 44.925781 52.339844 C 45.25 52.78125 45.589844 53.210938 45.941406 53.628906 C 46.292969 54.050781 46.660156 54.457031 47.035156 54.855469 C 47.414062 55.25 47.804688 55.636719 48.203125 56.007812 C 48.605469 56.382812 49.019531 56.742188 49.441406 57.089844 C 49.863281 57.4375 50.296875 57.769531 50.742188 58.089844 C 51.1875 58.410156 51.640625 58.71875 52.101562 59.007812 C 52.566406 59.300781 53.039062 59.578125 53.519531 59.84375 C 54 60.105469 54.484375 60.355469 54.980469 60.585938 C 55.476562 60.820312 55.980469 61.039062 56.488281 61.238281 C 56.996094 61.441406 57.511719 61.628906 58.03125 61.796875 C 58.554688 61.96875 59.078125 62.121094 59.609375 62.257812 C 60.136719 62.398438 60.671875 62.519531 61.210938 62.621094 C 61.746094 62.726562 62.289062 62.816406 62.832031 62.886719 C 63.375 62.957031 63.917969 63.011719 64.464844 63.050781 C 65.011719 63.085938 65.558594 63.105469 66.105469 63.109375 C 66.652344 63.113281 67.199219 63.101562 67.746094 63.070312 C 68.292969 63.039062 68.839844 62.992188 69.382812 62.929688 C 69.925781 62.867188 70.46875 62.785156 71.007812 62.6875 C 71.546875 62.589844 72.082031 62.476562 72.613281 62.347656 C 73.144531 62.214844 73.671875 62.070312 74.195312 61.90625 C 74.71875 61.742188 75.234375 61.5625 75.746094 61.367188 C 76.257812 61.171875 76.761719 60.960938 77.261719 60.738281 C 77.761719 60.511719 78.25 60.269531 78.734375 60.011719 C 79.21875 59.753906 79.695312 59.484375 80.160156 59.199219 C 80.628906 58.910156 81.085938 58.609375 81.535156 58.296875 L 84.875 61.640625 L 84.445312 62.070312 C 84.308594 62.207031 84.199219 62.367188 84.125 62.546875 C 84.050781 62.726562 84.015625 62.917969 84.015625 63.113281 C 84.015625 63.304688 84.050781 63.496094 84.125 63.675781 C 84.199219 63.855469 84.308594 64.015625 84.445312 64.152344 L 106.519531 86.226562 C 106.808594 86.515625 107.15625 86.660156 107.5625 86.660156 L 111.976562 86.660156 C 112.382812 86.660156 112.730469 86.515625 113.015625 86.226562 L 115.960938 83.285156 C 116.25 82.996094 116.390625 82.648438 116.390625 82.242188 L 116.390625 77.828125 C 116.390625 77.421875 116.25 77.074219 115.960938 76.789062 Z M 42.804688 36.621094 C 42.804688 35.847656 42.84375 35.078125 42.917969 34.3125 C 42.996094 33.542969 43.109375 32.78125 43.257812 32.027344 C 43.410156 31.269531 43.597656 30.523438 43.820312 29.785156 C 44.042969 29.046875 44.304688 28.320312 44.597656 27.609375 C 44.894531 26.894531 45.222656 26.199219 45.585938 25.519531 C 45.949219 24.839844 46.34375 24.179688 46.773438 23.539062 C 47.203125 22.898438 47.660156 22.277344 48.152344 21.683594 C 48.640625 21.085938 49.15625 20.515625 49.703125 19.96875 C 50.246094 19.425781 50.820312 18.90625 51.414062 18.417969 C 52.011719 17.929688 52.628906 17.46875 53.269531 17.039062 C 53.914062 16.613281 54.574219 16.214844 55.253906 15.851562 C 55.933594 15.488281 56.628906 15.160156 57.34375 14.863281 C 58.054688 14.570312 58.78125 14.308594 59.519531 14.085938 C 60.253906 13.863281 61.003906 13.675781 61.757812 13.523438 C 62.515625 13.375 63.277344 13.261719 64.046875 13.1875 C 64.8125 13.109375 65.582031 13.074219 66.351562 13.074219 C 67.125 13.074219 67.894531 13.109375 68.660156 13.1875 C 69.429688 13.261719 70.191406 13.375 70.945312 13.523438 C 71.703125 13.675781 72.449219 13.863281 73.1875 14.085938 C 73.925781 14.308594 74.652344 14.570312 75.363281 14.863281 C 76.078125 15.160156 76.773438 15.488281 77.453125 15.851562 C 78.132812 16.214844 78.792969 16.613281 79.4375 17.039062 C 80.078125 17.46875 80.695312 17.929688 81.292969 18.417969 C 81.886719 18.90625 82.457031 19.425781 83.003906 19.96875 C 83.550781 20.515625 84.066406 21.085938 84.554688 21.683594 C 85.046875 22.277344 85.503906 22.898438 85.933594 23.539062 C 86.359375 24.179688 86.757812 24.839844 87.121094 25.519531 C 87.484375 26.199219 87.8125 26.894531 88.109375 27.609375 C 88.402344 28.320312 88.664062 29.046875 88.886719 29.785156 C 89.109375 30.523438 89.296875 31.269531 89.449219 32.027344 C 89.597656 32.78125 89.710938 33.542969 89.789062 34.3125 C 89.863281 35.078125 89.902344 35.847656 89.902344 36.621094 C 89.902344 37.390625 89.863281 38.160156 89.789062 38.929688 C 89.710938 39.695312 89.597656 40.457031 89.449219 41.214844 C 89.296875 41.96875 89.109375 42.71875 88.886719 43.457031 C 88.664062 44.195312 88.402344 44.917969 88.109375 45.632812 C 87.8125 46.34375 87.484375 47.039062 87.121094 47.71875 C 86.757812 48.402344 86.359375 49.0625 85.933594 49.703125 C 85.503906 50.34375 85.046875 50.960938 84.554688 51.558594 C 84.066406 52.15625 83.550781 52.726562 83.003906 53.269531 C 82.457031 53.816406 81.886719 54.332031 81.292969 54.824219 C 80.695312 55.3125 80.078125 55.769531 79.4375 56.199219 C 78.792969 56.628906 78.132812 57.023438 77.453125 57.386719 C 76.773438 57.75 76.078125 58.082031 75.363281 58.375 C 74.652344 58.671875 73.925781 58.929688 73.1875 59.152344 C 72.449219 59.378906 71.703125 59.566406 70.945312 59.714844 C 70.191406 59.867188 69.429688 59.980469 68.660156 60.054688 C 67.894531 60.128906 67.125 60.167969 66.351562 60.167969 C 65.582031 60.167969 64.8125 60.128906 64.046875 60.050781 C 63.277344 59.976562 62.515625 59.863281 61.761719 59.710938 C 61.003906 59.558594 60.257812 59.371094 59.519531 59.148438 C 58.78125 58.921875 58.058594 58.664062 57.347656 58.367188 C 56.632812 58.074219 55.9375 57.742188 55.257812 57.378906 C 54.578125 57.015625 53.917969 56.621094 53.277344 56.191406 C 52.636719 55.761719 52.019531 55.304688 51.421875 54.816406 C 50.824219 54.324219 50.253906 53.808594 49.710938 53.261719 C 49.164062 52.71875 48.648438 52.148438 48.160156 51.550781 C 47.667969 50.957031 47.210938 50.335938 46.78125 49.695312 C 46.355469 49.054688 45.957031 48.394531 45.59375 47.714844 C 45.230469 47.035156 44.902344 46.339844 44.605469 45.628906 C 44.308594 44.914062 44.050781 44.191406 43.824219 43.453125 C 43.601562 42.714844 43.414062 41.96875 43.261719 41.210938 C 43.113281 40.457031 42.996094 39.695312 42.921875 38.925781 C 42.84375 38.160156 42.804688 37.390625 42.804688 36.621094 Z M 83.855469 56.453125 C 84.679688 55.726562 85.457031 54.945312 86.1875 54.121094 L 89.292969 57.222656 L 86.957031 59.558594 Z M 113.449219 81.632812 L 111.367188 83.714844 L 108.171875 83.714844 L 87.566406 63.109375 L 92.84375 57.832031 L 113.449219 78.4375 Z M 76.03125 41.242188 L 72.238281 39.976562 L 72.238281 38.703125 L 74.753906 36.1875 C 75.039062 35.902344 75.183594 35.554688 75.183594 35.148438 L 75.183594 30.460938 C 75.613281 30.3125 76.007812 30.097656 76.371094 29.824219 C 76.734375 29.550781 77.050781 29.226562 77.3125 28.855469 C 77.578125 28.484375 77.777344 28.082031 77.917969 27.652344 C 78.054688 27.21875 78.125 26.773438 78.128906 26.316406 C 78.125 25.835938 78.078125 25.355469 77.984375 24.882812 C 77.890625 24.410156 77.75 23.949219 77.566406 23.503906 C 77.378906 23.058594 77.152344 22.632812 76.882812 22.230469 C 76.617188 21.832031 76.3125 21.457031 75.96875 21.117188 C 75.628906 20.777344 75.257812 20.46875 74.855469 20.203125 C 74.453125 19.933594 74.03125 19.707031 73.582031 19.523438 C 73.136719 19.335938 72.675781 19.195312 72.203125 19.101562 C 71.730469 19.007812 71.25 18.960938 70.769531 18.960938 L 64.882812 18.960938 C 64.398438 18.960938 63.921875 19.007812 63.445312 19.101562 C 62.972656 19.195312 62.511719 19.335938 62.066406 19.523438 C 61.621094 19.707031 61.195312 19.933594 60.796875 20.203125 C 60.394531 20.46875 60.023438 20.777344 59.679688 21.117188 C 59.339844 21.457031 59.035156 21.832031 58.765625 22.230469 C 58.496094 22.632812 58.269531 23.058594 58.085938 23.503906 C 57.898438 23.949219 57.761719 24.410156 57.664062 24.882812 C 57.570312 25.355469 57.523438 25.835938 57.523438 26.316406 L 57.523438 33.675781 C 57.523438 34.167969 57.71875 34.558594 58.113281 34.855469 L 60.464844 36.621094 L 60.464844 39.976562 L 56.679688 41.242188 C 55.945312 41.480469 55.265625 41.832031 54.640625 42.285156 C 54.019531 42.742188 53.480469 43.285156 53.027344 43.910156 C 52.574219 44.535156 52.226562 45.21875 51.988281 45.953125 C 51.753906 46.691406 51.632812 47.445312 51.636719 48.21875 L 51.636719 49.867188 C 51.636719 50.0625 51.671875 50.25 51.746094 50.429688 C 51.824219 50.609375 51.929688 50.769531 52.066406 50.90625 C 52.203125 51.042969 52.363281 51.152344 52.542969 51.226562 C 52.726562 51.300781 52.914062 51.335938 53.109375 51.335938 C 53.304688 51.335938 53.492188 51.300781 53.671875 51.226562 C 53.851562 51.152344 54.011719 51.042969 54.148438 50.90625 C 54.285156 50.769531 54.394531 50.609375 54.46875 50.429688 C 54.542969 50.25 54.578125 50.0625 54.578125 49.867188 L 54.578125 48.21875 C 54.578125 47.753906 54.648438 47.300781 54.792969 46.859375 C 54.933594 46.417969 55.140625 46.011719 55.414062 45.632812 C 55.6875 45.257812 56.007812 44.933594 56.382812 44.660156 C 56.757812 44.386719 57.167969 44.179688 57.609375 44.035156 L 61.011719 42.898438 C 61.625 43.75 62.40625 44.40625 63.355469 44.859375 C 64.304688 45.3125 65.304688 45.507812 66.351562 45.449219 C 67.402344 45.507812 68.402344 45.3125 69.351562 44.859375 C 70.300781 44.40625 71.082031 43.75 71.695312 42.894531 L 75.105469 44.035156 C 75.546875 44.179688 75.953125 44.390625 76.328125 44.664062 C 76.699219 44.9375 77.023438 45.261719 77.292969 45.636719 C 77.566406 46.011719 77.773438 46.421875 77.914062 46.859375 C 78.058594 47.300781 78.128906 47.753906 78.128906 48.21875 L 78.128906 49.867188 C 78.128906 50.0625 78.164062 50.25 78.238281 50.429688 C 78.3125 50.609375 78.421875 50.769531 78.558594 50.90625 C 78.695312 51.042969 78.855469 51.152344 79.035156 51.226562 C 79.214844 51.300781 79.402344 51.335938 79.597656 51.335938 C 79.792969 51.335938 79.980469 51.300781 80.160156 51.226562 C 80.34375 51.152344 80.5 51.042969 80.640625 50.90625 C 80.777344 50.769531 80.882812 50.609375 80.957031 50.429688 C 81.035156 50.25 81.070312 50.0625 81.070312 49.867188 L 81.070312 48.21875 C 81.070312 47.445312 80.953125 46.691406 80.71875 45.957031 C 80.480469 45.21875 80.136719 44.539062 79.683594 43.914062 C 79.230469 43.285156 78.691406 42.746094 78.070312 42.289062 C 77.445312 41.832031 76.765625 41.484375 76.03125 41.242188 Z M 60.464844 26.316406 C 60.464844 26.027344 60.496094 25.742188 60.550781 25.457031 C 60.609375 25.171875 60.691406 24.898438 60.804688 24.628906 C 60.914062 24.363281 61.050781 24.105469 61.210938 23.867188 C 61.371094 23.625 61.554688 23.402344 61.761719 23.199219 C 61.964844 22.992188 62.1875 22.808594 62.429688 22.648438 C 62.671875 22.488281 62.925781 22.351562 63.191406 22.242188 C 63.460938 22.128906 63.738281 22.046875 64.019531 21.988281 C 64.304688 21.933594 64.589844 21.902344 64.882812 21.902344 L 70.769531 21.902344 C 71.058594 21.902344 71.34375 21.933594 71.628906 21.988281 C 71.914062 22.046875 72.191406 22.128906 72.457031 22.242188 C 72.726562 22.351562 72.980469 22.488281 73.21875 22.648438 C 73.460938 22.808594 73.683594 22.992188 73.890625 23.199219 C 74.09375 23.402344 74.277344 23.625 74.4375 23.867188 C 74.597656 24.105469 74.734375 24.363281 74.847656 24.628906 C 74.957031 24.898438 75.042969 25.171875 75.097656 25.457031 C 75.15625 25.742188 75.183594 26.027344 75.183594 26.316406 C 75.183594 26.511719 75.144531 26.699219 75.070312 26.882812 C 74.996094 27.0625 74.890625 27.21875 74.753906 27.359375 C 74.613281 27.496094 74.457031 27.601562 74.273438 27.675781 C 74.09375 27.753906 73.90625 27.789062 73.710938 27.789062 L 67.824219 27.789062 C 67.320312 27.792969 66.828125 27.886719 66.351562 28.0625 L 66.351562 27.789062 C 66.355469 27.398438 66.429688 27.023438 66.578125 26.664062 C 66.726562 26.304688 66.941406 25.984375 67.214844 25.710938 C 67.492188 25.433594 67.808594 25.222656 68.171875 25.070312 C 68.53125 24.921875 68.90625 24.847656 69.296875 24.847656 C 69.492188 24.847656 69.679688 24.808594 69.859375 24.734375 C 70.039062 24.660156 70.199219 24.554688 70.335938 24.414062 C 70.476562 24.277344 70.582031 24.117188 70.65625 23.9375 C 70.730469 23.757812 70.769531 23.570312 70.769531 23.375 C 70.769531 23.179688 70.730469 22.992188 70.65625 22.8125 C 70.582031 22.632812 70.476562 22.472656 70.335938 22.332031 C 70.199219 22.195312 70.039062 22.089844 69.859375 22.015625 C 69.679688 21.941406 69.492188 21.902344 69.296875 21.902344 C 68.910156 21.902344 68.527344 21.941406 68.148438 22.015625 C 67.769531 22.09375 67.402344 22.203125 67.042969 22.351562 C 66.6875 22.5 66.347656 22.683594 66.027344 22.898438 C 65.707031 23.113281 65.410156 23.355469 65.136719 23.628906 C 64.863281 23.902344 64.617188 24.199219 64.402344 24.519531 C 64.1875 24.84375 64.007812 25.179688 63.859375 25.539062 C 63.710938 25.894531 63.601562 26.261719 63.523438 26.640625 C 63.449219 27.019531 63.410156 27.402344 63.410156 27.789062 L 63.410156 35.148438 L 60.464844 32.941406 Z M 69.296875 41.035156 C 69.296875 41.621094 68.121094 42.507812 66.351562 42.507812 C 64.585938 42.507812 63.410156 41.621094 63.410156 41.035156 L 63.410156 38.828125 L 64 39.269531 C 64.222656 39.4375 64.472656 39.53125 64.75 39.558594 C 65.027344 39.582031 65.289062 39.53125 65.539062 39.410156 C 65.789062 39.285156 65.988281 39.101562 66.132812 38.867188 C 66.28125 38.628906 66.351562 38.371094 66.351562 38.09375 L 66.351562 32.203125 C 66.351562 32.011719 66.390625 31.820312 66.464844 31.640625 C 66.539062 31.460938 66.648438 31.300781 66.785156 31.164062 C 66.921875 31.027344 67.082031 30.921875 67.261719 30.84375 C 67.441406 30.769531 67.628906 30.734375 67.824219 30.734375 L 72.238281 30.734375 L 72.238281 34.539062 L 69.726562 37.050781 C 69.441406 37.339844 69.296875 37.683594 69.296875 38.09375 Z M 128.164062 49.867188 C 128.164062 50.0625 128.128906 50.25 128.054688 50.429688 C 127.980469 50.609375 127.871094 50.769531 127.734375 50.90625 C 127.597656 51.042969 127.4375 51.152344 127.257812 51.226562 C 127.078125 51.300781 126.890625 51.335938 126.695312 51.335938 L 109.035156 51.335938 C 108.839844 51.335938 108.652344 51.300781 108.46875 51.226562 C 108.289062 51.152344 108.128906 51.042969 107.992188 50.90625 C 107.855469 50.769531 107.75 50.609375 107.671875 50.429688 C 107.597656 50.25 107.5625 50.0625 107.5625 49.867188 C 107.5625 49.671875 107.597656 49.484375 107.671875 49.300781 C 107.75 49.121094 107.855469 48.964844 107.992188 48.824219 C 108.128906 48.6875 108.289062 48.582031 108.46875 48.507812 C 108.652344 48.429688 108.839844 48.394531 109.035156 48.394531 L 126.695312 48.394531 C 126.890625 48.394531 127.078125 48.429688 127.257812 48.507812 C 127.4375 48.582031 127.597656 48.6875 127.734375 48.824219 C 127.871094 48.964844 127.980469 49.121094 128.054688 49.300781 C 128.128906 49.484375 128.164062 49.671875 128.164062 49.867188 Z M 98.730469 48.394531 C 98.730469 48.003906 98.804688 47.628906 98.957031 47.269531 C 99.105469 46.90625 99.316406 46.589844 99.59375 46.3125 C 99.871094 46.035156 100.1875 45.824219 100.546875 45.675781 C 100.910156 45.523438 101.285156 45.449219 101.675781 45.449219 C 102.066406 45.449219 102.441406 45.523438 102.800781 45.675781 C 103.160156 45.824219 103.480469 46.035156 103.757812 46.3125 C 104.03125 46.589844 104.246094 46.90625 104.394531 47.269531 C 104.542969 47.628906 104.617188 48.003906 104.617188 48.394531 C 104.617188 48.785156 104.542969 49.160156 104.394531 49.519531 C 104.246094 49.882812 104.03125 50.199219 103.757812 50.476562 C 103.480469 50.75 103.160156 50.964844 102.800781 51.113281 C 102.441406 51.261719 102.066406 51.335938 101.675781 51.335938 C 101.285156 51.335938 100.910156 51.261719 100.546875 51.113281 C 100.1875 50.964844 99.871094 50.75 99.59375 50.476562 C 99.316406 50.199219 99.105469 49.882812 98.957031 49.519531 C 98.804688 49.160156 98.730469 48.785156 98.730469 48.394531 Z M 128.164062 35.148438 C 128.164062 35.34375 128.128906 35.53125 128.054688 35.710938 C 127.980469 35.890625 127.871094 36.050781 127.734375 36.1875 C 127.597656 36.328125 127.4375 36.433594 127.257812 36.507812 C 127.078125 36.582031 126.890625 36.621094 126.695312 36.621094 L 109.035156 36.621094 C 108.839844 36.621094 108.652344 36.582031 108.46875 36.507812 C 108.289062 36.433594 108.128906 36.328125 107.992188 36.1875 C 107.855469 36.050781 107.75 35.890625 107.671875 35.710938 C 107.597656 35.53125 107.5625 35.34375 107.5625 35.148438 C 107.5625 34.953125 107.597656 34.765625 107.671875 34.585938 C 107.75 34.40625 107.855469 34.246094 107.992188 34.109375 C 108.128906 33.96875 108.289062 33.863281 108.46875 33.789062 C 108.652344 33.714844 108.839844 33.675781 109.035156 33.675781 L 126.695312 33.675781 C 126.890625 33.675781 127.078125 33.714844 127.257812 33.789062 C 127.4375 33.863281 127.597656 33.96875 127.734375 34.109375 C 127.871094 34.246094 127.980469 34.40625 128.054688 34.585938 C 128.128906 34.765625 128.164062 34.953125 128.164062 35.148438 Z M 98.730469 33.675781 C 98.730469 33.285156 98.804688 32.910156 98.957031 32.550781 C 99.105469 32.191406 99.316406 31.871094 99.59375 31.59375 C 99.871094 31.320312 100.1875 31.105469 100.546875 30.957031 C 100.910156 30.808594 101.285156 30.734375 101.675781 30.734375 C 102.066406 30.734375 102.441406 30.808594 102.800781 30.957031 C 103.160156 31.105469 103.480469 31.320312 103.757812 31.59375 C 104.03125 31.871094 104.246094 32.191406 104.394531 32.550781 C 104.542969 32.910156 104.617188 33.285156 104.617188 33.675781 C 104.617188 34.066406 104.542969 34.441406 104.394531 34.804688 C 104.246094 35.164062 104.03125 35.480469 103.757812 35.757812 C 103.480469 36.035156 103.160156 36.246094 102.800781 36.394531 C 102.441406 36.546875 102.066406 36.621094 101.675781 36.621094 C 101.285156 36.621094 100.910156 36.546875 100.546875 36.394531 C 100.1875 36.246094 99.871094 36.035156 99.59375 35.757812 C 99.316406 35.480469 99.105469 35.164062 98.957031 34.804688 C 98.804688 34.441406 98.730469 34.066406 98.730469 33.675781 Z M 107.5625 20.429688 C 107.5625 20.234375 107.597656 20.046875 107.671875 19.867188 C 107.75 19.6875 107.855469 19.527344 107.992188 19.390625 C 108.128906 19.253906 108.289062 19.144531 108.46875 19.070312 C 108.652344 18.996094 108.839844 18.960938 109.035156 18.960938 L 126.695312 18.960938 C 126.890625 18.960938 127.078125 18.996094 127.257812 19.070312 C 127.4375 19.144531 127.597656 19.253906 127.734375 19.390625 C 127.871094 19.527344 127.980469 19.6875 128.054688 19.867188 C 128.128906 20.046875 128.164062 20.234375 128.164062 20.429688 C 128.164062 20.625 128.128906 20.8125 128.054688 20.996094 C 127.980469 21.175781 127.871094 21.332031 127.734375 21.472656 C 127.597656 21.609375 127.4375 21.714844 127.257812 21.789062 C 127.078125 21.867188 126.890625 21.902344 126.695312 21.902344 L 109.035156 21.902344 C 108.839844 21.902344 108.652344 21.867188 108.46875 21.789062 C 108.289062 21.714844 108.128906 21.609375 107.992188 21.472656 C 107.855469 21.332031 107.75 21.175781 107.671875 20.996094 C 107.597656 20.8125 107.5625 20.625 107.5625 20.429688 Z M 98.730469 18.960938 C 98.730469 18.570312 98.804688 18.195312 98.957031 17.832031 C 99.105469 17.472656 99.316406 17.152344 99.59375 16.878906 C 99.871094 16.601562 100.1875 16.390625 100.546875 16.238281 C 100.910156 16.089844 101.285156 16.015625 101.675781 16.015625 C 102.066406 16.015625 102.441406 16.089844 102.800781 16.238281 C 103.160156 16.390625 103.480469 16.601562 103.757812 16.878906 C 104.03125 17.152344 104.246094 17.472656 104.394531 17.832031 C 104.542969 18.195312 104.617188 18.570312 104.617188 18.960938 C 104.617188 19.351562 104.542969 19.726562 104.394531 20.085938 C 104.246094 20.445312 104.03125 20.765625 103.757812 21.039062 C 103.480469 21.316406 103.160156 21.53125 102.800781 21.679688 C 102.441406 21.828125 102.066406 21.902344 101.675781 21.902344 C 101.285156 21.902344 100.910156 21.828125 100.546875 21.679688 C 100.1875 21.53125 99.871094 21.316406 99.59375 21.039062 C 99.316406 20.765625 99.105469 20.445312 98.957031 20.085938 C 98.804688 19.726562 98.730469 19.351562 98.730469 18.960938 Z M 98.730469 18.960938 " fill-opacity="1" fill-rule="nonzero"/></g></svg>