<svg xmlns="http://www.w3.org/2000/svg" xmlns:xlink="http://www.w3.org/1999/xlink" width="224" zoomAndPan="magnify" viewBox="0 0 168 94.499997" height="126" preserveAspectRatio="xMidYMid meet" version="1.0"><defs><clipPath id="317fd66be8"><path d="M 12.378906 18.425781 L 69.824219 18.425781 L 69.824219 75.875 L 12.378906 75.875 Z M 12.378906 18.425781 " clip-rule="nonzero"/></clipPath><clipPath id="3e88113e41"><path d="M 103.25 18.425781 L 145.027344 18.425781 L 145.027344 75.875 L 103.25 75.875 Z M 103.25 18.425781 " clip-rule="nonzero"/></clipPath></defs><g clip-path="url(#317fd66be8)"><path fill="#ffffff" d="M 68.882812 25.828125 L 62.339844 19.285156 C 61.929688 18.875 61.375 18.644531 60.796875 18.644531 L 25.902344 18.644531 C 24.695312 18.644531 23.71875 19.621094 23.71875 20.828125 L 23.71875 29.523438 C 22.785156 29.847656 21.898438 30.351562 21.109375 31.074219 C 19.292969 31.152344 17.667969 31.816406 16.457031 32.988281 C 15.199219 34.210938 14.46875 35.914062 14.355469 37.855469 C 13.0625 39.304688 12.375 41.023438 12.402344 42.78125 C 12.425781 44.464844 13.105469 46.085938 14.335938 47.425781 C 14.414062 49.246094 15.078125 50.867188 16.253906 52.078125 C 16.535156 52.371094 16.847656 52.625 17.175781 52.855469 L 17.175781 66.628906 C 17.175781 67.433594 17.621094 68.171875 18.328125 68.550781 C 19.035156 68.929688 19.894531 68.890625 20.566406 68.441406 L 23.71875 66.339844 L 23.71875 73.171875 C 23.71875 74.375 24.695312 75.351562 25.902344 75.351562 L 67.339844 75.351562 C 68.546875 75.351562 69.523438 74.375 69.523438 73.171875 L 69.523438 27.371094 C 69.523438 26.792969 69.292969 26.238281 68.882812 25.828125 Z M 60.796875 23.910156 L 64.257812 27.371094 L 60.796875 27.371094 Z M 19.386719 49.042969 C 18.722656 48.359375 18.648438 47.386719 18.707031 46.691406 C 18.761719 45.992188 18.480469 45.3125 17.945312 44.855469 C 17.414062 44.40625 16.777344 43.664062 16.765625 42.714844 C 16.753906 41.921875 17.175781 41.113281 17.996094 40.375 C 18.480469 39.933594 18.742188 39.300781 18.710938 38.648438 C 18.65625 37.546875 18.925781 36.671875 19.496094 36.121094 C 20.179688 35.460938 21.152344 35.394531 21.847656 35.441406 C 22.5625 35.511719 23.226562 35.214844 23.679688 34.683594 C 24.132812 34.148438 24.871094 33.511719 25.824219 33.5 C 26.613281 33.449219 27.425781 33.914062 28.164062 34.730469 C 28.601562 35.214844 29.230469 35.484375 29.890625 35.445312 C 30.988281 35.394531 31.867188 35.660156 32.417969 36.230469 C 33.082031 36.914062 33.152344 37.886719 33.097656 38.582031 C 33.039062 39.28125 33.324219 39.960938 33.855469 40.417969 C 34.386719 40.867188 35.023438 41.609375 35.039062 42.558594 C 35.050781 43.351562 34.625 44.160156 33.808594 44.898438 C 33.320312 45.339844 33.058594 45.972656 33.09375 46.625 C 33.148438 47.726562 32.875 48.601562 32.308594 49.152344 C 31.625 49.816406 30.652344 49.886719 29.957031 49.832031 C 29.253906 49.777344 28.578125 50.058594 28.121094 50.59375 C 27.667969 51.125 26.929688 51.761719 25.980469 51.773438 C 25.1875 51.753906 24.378906 51.359375 23.636719 50.542969 C 23.207031 50.066406 22.558594 49.789062 21.910156 49.828125 C 20.808594 49.875 19.9375 49.609375 19.386719 49.042969 Z M 24.691406 60.453125 L 21.539062 62.550781 L 21.539062 54.5 C 22.835938 55.519531 24.386719 56.136719 26.042969 56.136719 C 27.558594 56.113281 29.007812 55.535156 30.261719 54.53125 L 30.261719 62.550781 L 27.109375 60.453125 C 26.378906 59.964844 25.425781 59.964844 24.691406 60.453125 Z M 65.160156 70.992188 L 28.082031 70.992188 L 28.082031 66.339844 L 31.234375 68.441406 C 31.898438 68.886719 32.773438 68.925781 33.472656 68.550781 C 34.183594 68.171875 34.625 67.433594 34.625 66.628906 L 34.625 52.859375 C 34.875 52.679688 35.121094 52.5 35.34375 52.285156 C 36.605469 51.0625 37.332031 49.359375 37.445312 47.417969 C 38.738281 45.96875 39.425781 44.25 39.402344 42.496094 C 39.375 40.808594 38.695312 39.1875 37.464844 37.847656 C 37.386719 36.027344 36.722656 34.40625 35.546875 33.195312 C 34.328125 31.933594 32.625 31.203125 30.683594 31.089844 C 29.890625 30.386719 29 29.898438 28.082031 29.578125 L 28.082031 23.007812 L 56.4375 23.007812 L 56.4375 29.550781 C 56.4375 30.753906 57.414062 31.730469 58.617188 31.730469 L 65.160156 31.730469 Z M 58.617188 36.09375 C 61.429688 36.09375 61.421875 40.457031 58.617188 40.457031 L 45.53125 40.457031 C 42.71875 40.457031 42.722656 36.09375 45.53125 36.09375 Z M 58.617188 51.359375 L 45.53125 51.359375 C 42.71875 51.359375 42.722656 47 45.53125 47 L 58.617188 47 C 61.429688 47 61.421875 51.359375 58.617188 51.359375 Z M 58.617188 62.265625 L 45.53125 62.265625 C 42.71875 62.265625 42.722656 57.902344 45.53125 57.902344 L 58.617188 57.902344 C 61.429688 57.902344 61.421875 62.265625 58.617188 62.265625 Z M 58.617188 62.265625 " fill-opacity="1" fill-rule="nonzero"/></g><g clip-path="url(#3e88113e41)"><path fill="#ffffff" d="M 124.277344 26.15625 C 116.964844 26.15625 111.015625 32.105469 111.015625 39.421875 C 111.015625 46.734375 116.964844 52.683594 124.277344 52.683594 C 131.589844 52.683594 137.542969 46.734375 137.542969 39.421875 C 137.542969 32.105469 131.589844 26.15625 124.277344 26.15625 Z M 124.277344 48.894531 C 119.054688 48.894531 114.804688 44.644531 114.804688 39.421875 C 114.804688 34.195312 119.054688 29.945312 124.277344 29.945312 C 129.503906 29.945312 133.753906 34.195312 133.753906 39.421875 C 133.753906 44.644531 129.503906 48.894531 124.277344 48.894531 Z M 139.542969 53.5625 C 142.992188 49.84375 145.121094 44.882812 145.121094 39.421875 C 145.121094 27.929688 135.769531 18.578125 124.277344 18.578125 C 112.785156 18.578125 103.4375 27.929688 103.4375 39.421875 C 103.4375 44.882812 105.566406 49.84375 109.015625 53.5625 L 103.546875 69.125 C 103.3125 69.785156 103.464844 70.519531 103.933594 71.03125 C 104.40625 71.546875 105.125 71.769531 105.800781 71.589844 L 111.191406 70.214844 L 114.542969 74.664062 C 114.902344 75.144531 115.464844 75.417969 116.054688 75.417969 C 116.152344 75.417969 116.25 75.410156 116.347656 75.398438 C 117.035156 75.289062 117.613281 74.808594 117.84375 74.152344 L 122.746094 60.183594 C 123.253906 60.222656 123.761719 60.261719 124.277344 60.261719 C 124.796875 60.261719 125.304688 60.222656 125.8125 60.183594 L 130.714844 74.152344 C 130.945312 74.808594 131.519531 75.289062 132.210938 75.398438 C 132.308594 75.410156 132.40625 75.417969 132.5 75.417969 C 133.09375 75.417969 133.65625 75.144531 134.015625 74.664062 L 137.367188 70.214844 L 142.757812 71.589844 C 143.433594 71.765625 144.152344 71.546875 144.621094 71.03125 C 145.09375 70.519531 145.246094 69.785156 145.011719 69.125 Z M 115.441406 69.558594 L 113.457031 66.929688 C 112.996094 66.316406 112.21875 66.035156 111.476562 66.234375 L 108.292969 67.042969 L 112.078125 56.28125 C 114.121094 57.765625 116.445312 58.882812 118.953125 59.546875 Z M 124.277344 56.472656 C 114.875 56.472656 107.226562 48.824219 107.226562 39.421875 C 107.226562 30.019531 114.875 22.367188 124.277344 22.367188 C 133.683594 22.367188 141.332031 30.019531 141.332031 39.421875 C 141.332031 48.824219 133.683594 56.472656 124.277344 56.472656 Z M 137.082031 66.234375 C 136.339844 66.035156 135.558594 66.316406 135.097656 66.929688 L 133.117188 69.558594 L 129.605469 59.546875 C 132.113281 58.882812 134.433594 57.765625 136.480469 56.28125 L 140.265625 67.042969 Z M 137.082031 66.234375 " fill-opacity="1" fill-rule="nonzero"/></g></svg>