<svg xmlns="http://www.w3.org/2000/svg" xmlns:xlink="http://www.w3.org/1999/xlink" width="100" zoomAndPan="magnify" viewBox="0 0 75 37.5" height="50" preserveAspectRatio="xMidYMid meet" version="1.0"><defs><g/></defs><g fill="#f1f1f1" fill-opacity="1"><g transform="translate(39.682663, 30.46928)"><g><path d="M 7.582031 -22.546875 L 0.28125 -22.546875 C 0.140625 -22.546875 0 -22.40625 0 -22.292969 L 0 -18.402344 L 7.582031 -18.402344 C 8.089844 -18.402344 10.90625 -18.261719 10.90625 -15.78125 C 10.90625 -13.300781 8.144531 -13.246094 7.582031 -13.246094 L 0 -13.246094 L 0 -0.253906 C 0 -0.140625 0.140625 0 0.28125 0 L 3.945312 0 C 4.144531 0 4.226562 -0.140625 4.226562 -0.253906 L 4.226562 -9.074219 L 7.582031 -9.074219 C 8.117188 -9.074219 15.191406 -9.160156 15.191406 -15.78125 C 15.191406 -22.40625 8.484375 -22.546875 7.582031 -22.546875 Z M 7.582031 -22.546875 "/></g></g></g><g fill="#f1f1f1" fill-opacity="1"><g transform="translate(19.36224, 30.46928)"><g><path d="M 7.582031 -22.546875 L 0.28125 -22.546875 C 0.140625 -22.546875 0 -22.40625 0 -22.292969 L 0 -18.402344 L 7.582031 -18.402344 C 8.089844 -18.402344 10.90625 -18.261719 10.90625 -15.78125 C 10.90625 -13.300781 8.144531 -13.246094 7.582031 -13.246094 L 0 -13.246094 L 0 -0.253906 C 0 -0.140625 0.140625 0 0.28125 0 L 3.945312 0 C 4.144531 0 4.226562 -0.140625 4.226562 -0.253906 L 4.226562 -9.074219 L 7.582031 -9.074219 C 8.117188 -9.074219 15.191406 -9.160156 15.191406 -15.78125 C 15.191406 -22.40625 8.484375 -22.546875 7.582031 -22.546875 Z M 7.582031 -22.546875 "/></g></g></g></svg>